<svg xmlns="http://www.w3.org/2000/svg" width="48" height="58" viewBox="0 0 48 58">
  <metadata><?xpacket begin="﻿" id="W5M0MpCehiHzreSzNTczkc9d"?>
<x:xmpmeta xmlns:x="adobe:ns:meta/" x:xmptk="Adobe XMP Core 5.6-c138 79.159824, 2016/09/14-01:09:01        ">
   <rdf:RDF xmlns:rdf="http://www.w3.org/1999/02/22-rdf-syntax-ns#">
      <rdf:Description rdf:about=""/>
   </rdf:RDF>
</x:xmpmeta>
                                                                                                    
                                                                                                    
                                                                                                    
                                                                                                    
                                                                                                    
                                                                                                    
                                                                                                    
                                                                                                    
                                                                                                    
                                                                                                    
                                                                                                    
                                                                                                    
                                                                                                    
                                                                                                    
                                                                                                    
                                                                                                    
                                                                                                    
                                                                                                    
                                                                                                    
                                                                                                    
                           
<?xpacket end="w"?></metadata>
<defs>
    <style>
      .cls-1 {
        fill: #fefefe;
      }

      .cls-1, .cls-2 {
        fill-rule: evenodd;
      }

      .cls-2 {
        fill: #fff;
      }
    </style>
  </defs>
  <path id="S" class="cls-1" d="M14.143,41.659q2.706,2.132,7.667,2.132a15.028,15.028,0,0,0,8.241-2.05,7.8,7.8,0,0,0,3.772-7.052,6.822,6.822,0,0,0-2.132-5.33,12.521,12.521,0,0,0-4.961-2.378q-2.912-.778-5.781-1.517a36.335,36.335,0,0,1-3.444-1.23,3.424,3.424,0,0,1-1.517-3.157,3.893,3.893,0,0,1,2.337-3.608,9.729,9.729,0,0,1,4.551-.984q5.7,0,5.9,4.469h4.305a7,7,0,0,0-3.116-6.15,11.969,11.969,0,0,0-6.888-1.845,13.979,13.979,0,0,0-7.79,2.009,7.61,7.61,0,0,0-3.608,6.806q0,4.3,4.674,6.519a43.613,43.613,0,0,0,8.323,2.3q4.837,1.025,4.838,4.551,0,5.126-7.462,5.125-6.356,0-6.478-5.74h-4.3q-0.123,4.757,2.87,7.134h0Z"/>
  <path class="cls-2" d="M21,9h3V47H21V9Z"/>
</svg>
