<svg xmlns="http://www.w3.org/2000/svg" xmlns:xlink="http://www.w3.org/1999/xlink" version="1.1" style="enable-background:new 0 0 612 792;" xml:space="preserve" width="612" height="792"><rect id="backgroundrect" width="100%" height="100%" x="0" y="0" fill="none" stroke="none"/>



<g class="currentLayer"><title>Layer 1</title><g id="svg_1" class="" fill="#ffffff" fill-opacity="1">
	<defs>
		<rect id="SVGID_1_" y="82" width="612" height="628" fill="#ffffff" fill-opacity="1"/>
	</defs>
	<clipPath id="SVGID_2_">
		<use xlink:href="#SVGID_1_" style="overflow:visible;" id="svg_2"/>
	</clipPath>
	<path style="clip-path:url(#SVGID_2_);" d="M337.212,196.162H130.726c-15.155,0-27.492,12.337-27.492,27.492   c0,15.235,12.337,27.556,27.492,27.556h206.486c15.155,0,27.492-12.321,27.492-27.556   C364.704,208.498,352.367,196.162,337.212,196.162z" id="svg_3" fill="#ffffff" fill-opacity="1"/>
	<path style="clip-path:url(#SVGID_2_);" d="M364.704,326.904c0-15.236-12.337-27.556-27.492-27.556H130.726   c-15.155,0-27.492,12.32-27.492,27.556c0,15.219,12.337,27.54,27.492,27.54h206.486   C352.367,354.444,364.704,342.124,364.704,326.904z" id="svg_4" fill="#ffffff" fill-opacity="1"/>
</g><g id="svg_5" class="" fill="#ffffff" fill-opacity="1">
	<defs>
		<rect id="SVGID_3_" x="0.9660000205039978" y="88.33699798583984" width="611.0339965820312" height="612" fill="#ffffff" fill-opacity="1"/>
	</defs>
	<clipPath id="SVGID_4_">
		<use xlink:href="#SVGID_3_" style="overflow:visible;" id="svg_6"/>
	</clipPath>
	<g style="clip-path:url(#SVGID_4_);" id="svg_7" fill="#ffffff" fill-opacity="1">
		<defs>
			<rect id="SVGID_5_" y="82" width="612" height="628" fill="#ffffff" fill-opacity="1"/>
		</defs>
		<clipPath id="SVGID_6_">
			<use xlink:href="#SVGID_5_" style="overflow:visible;" id="svg_8"/>
		</clipPath>
		<path style="clip-path:url(#SVGID_6_);" d="M233.961,457.63c15.236,0,27.556-12.337,27.556-27.492    c0-15.236-12.321-27.556-27.556-27.556H130.726c-15.155,0-27.492,12.321-27.492,27.556c0,15.155,12.337,27.492,27.492,27.492    H233.961z" id="svg_9" fill="#ffffff" fill-opacity="1"/>
		<path style="clip-path:url(#SVGID_6_);" d="M441.767,551.234l-28.877,19.069v68.512H55.048v-495.43h357.843V252.16l55.048-95.375    v-40.956c0-15.155-12.337-27.492-27.556-27.492H27.492C12.337,88.337,0,100.674,0,115.828v550.542    c0,15.22,12.337,27.556,27.492,27.556h412.891c15.22,0,27.556-12.337,27.556-27.556V514.692L454.78,537.4    C451.576,542.988,447.05,547.772,441.767,551.234z" id="svg_10" fill="#ffffff" fill-opacity="1"/>
	</g>
</g><g id="svg_11" class="" fill="#ffffff" fill-opacity="1">
	<defs>
		<rect id="SVGID_7_" y="82" width="612" height="628" fill="#ffffff" fill-opacity="1"/>
	</defs>
	<clipPath id="SVGID_8_">
		<use xlink:href="#SVGID_7_" style="overflow:visible;" id="svg_12"/>
	</clipPath>
	<path style="clip-path:url(#SVGID_8_);" d="M371.42,539.977c-4.59-3.704-9.808-7.167-15.413-10.388   c-5.524-3.269-11.193-5.975-16.669-8.101l1.949-32.211c7.183,0.934,17.812,3.833,31.341,11.628   c13.464,7.811,21.323,15.542,25.72,21.275L371.42,539.977z M604.511,215.794c-0.564-2.448-6.41-24.722-41.391-44.918   c-35.045-20.196-57.19-14.156-59.638-13.4c-3.269,1.063-6.039,3.269-7.811,6.297L323.684,461.721   c-1.079,1.82-1.707,3.897-1.836,6.039l-6.41,107.503c-0.322,5.234,2.319,10.13,6.796,12.771c4.526,2.593,10.13,2.464,14.462-0.435   l89.9-59.332c1.836-1.192,3.269-2.754,4.348-4.59l172.053-298.012C604.704,222.719,605.268,219.192,604.511,215.794z" id="svg_13" fill="#ffffff" fill-opacity="1"/>
	<path style="clip-path:url(#SVGID_8_);" d="M191.878,584.83c0.95,5.54,7.296,7.231,11.58,9.003   c4.091,1.755,9.051-1.578,12.449-3.205c21.017-10.195,49.459,1.755,71.974,1.755c13.271,0,13.271-20.631,0-20.631   c-26.236,0-48.058-6.619-74.116-2.335c0-1.514-0.499-3.527-2.126-6.297c-4.848-8.294-11.08-10.694-17.249-9.679   c-0.435-0.95-0.805-1.949-1.385-2.963c-1.627-2.641-3.897-3.962-6.474-4.526c7.296-12.643,11.95-26.042,7.167-36.929   c-1.433-3.269-5.589-4.96-8.858-5.089c-13.786-0.515-25.607,13.963-34.481,22.644c-22.209,21.71-41.713,46.367-60.652,70.96   c-8.117,10.517,9.824,20.76,17.812,10.388c16.798-21.774,34.53-42.84,53.598-62.601c-4.59,7.553-9.502,14.978-14.591,22.08   c-7.36,11.386,10.178,21.017,17.796,10.452c1.82-2.77,4.155-4.783,6.668-6.49c-0.499,1.256-0.998,2.512-1.562,3.785   c0.048,0,0.048,0.048,0.113,0.048c-0.435,0.821-0.805,1.643-1.127,2.4c-4.654,11.58,12.578,16.862,18.875,7.988   c1.578-2.271,3.012-4.654,4.332-7.167C191.572,580.176,191.508,582.446,191.878,584.83z" id="svg_14" fill="#ffffff" fill-opacity="1"/>
</g></g></svg>