<svg xmlns="http://www.w3.org/2000/svg" xmlns:xlink="http://www.w3.org/1999/xlink" version="1.1" xml:space="preserve" width="612" height="792"><rect id="backgroundrect" width="100%" height="100%" x="0" y="0" fill="none" stroke="none"/>


<g class="currentLayer"><title>Layer 1</title><g id="svg_1" class="" fill="#ffffff" fill-opacity="1">
	<defs>
		<rect id="SVGID_1_" x="0.07199999690055847" y="117.25599670410156" width="611.927978515625" height="555.7440185546875" fill="#ffffff" fill-opacity="1"/>
	</defs>
	<clipPath id="SVGID_2_">
		<use xlink:href="#SVGID_1_" style="overflow:visible;" id="svg_2"/>
	</clipPath>
	<g style="clip-path:url(#SVGID_2_);" id="svg_3" fill="#ffffff" fill-opacity="1">
		<defs>
			<rect id="SVGID_3_" y="119" width="612" height="554" fill="#ffffff" fill-opacity="1"/>
		</defs>
		<clipPath id="SVGID_4_">
			<use xlink:href="#SVGID_3_" style="overflow:visible;" id="svg_4"/>
		</clipPath>
		<path style="clip-path:url(#SVGID_4_);" d="M531.022,673H80.978C36.327,673,0,636.674,0,592.024V310.745    c0-44.652,36.327-80.978,80.978-80.978h450.045c44.652,0,80.978,36.327,80.978,80.978v281.279    C612,636.674,575.673,673,531.022,673 M80.978,279.211c-17.388,0-31.534,14.145-31.534,31.534v281.279    c0,17.387,14.145,31.534,31.534,31.534h450.045c17.388,0,31.535-14.147,31.535-31.534V310.745    c0-17.388-14.147-31.534-31.535-31.534H80.978z" id="svg_5" fill="#ffffff" fill-opacity="1"/>
	</g>
</g><g id="svg_6" class="selected" fill="#ffffff" fill-opacity="1">
	<defs>
		<rect id="SVGID_5_" y="119" width="612" height="554" fill="#ffffff" fill-opacity="1"/>
	</defs>
	<clipPath id="SVGID_6_">
		<use xlink:href="#SVGID_5_" style="overflow:visible;" id="svg_7"/>
	</clipPath>
	<path style="clip-path:url(#SVGID_6_);" d="M418.511,673c-13.654,0-24.721-11.067-24.721-24.721V198.234   c0-17.388-14.147-31.535-31.534-31.535H249.744c-17.387,0-31.534,14.146-31.534,31.535v450.045   c0,13.654-11.069,24.721-24.721,24.721c-13.653,0-24.721-11.067-24.721-24.721V198.234c0-44.651,36.327-80.978,80.976-80.978   h112.512c44.651,0,80.976,36.327,80.976,80.978v450.045C443.233,661.933,432.165,673,418.511,673" id="svg_8" fill="#ffffff" fill-opacity="1"/>
</g></g></svg>