<svg xmlns="http://www.w3.org/2000/svg" xmlns:xlink="http://www.w3.org/1999/xlink" version="1.1" style="enable-background:new 0 0 73.667 78;" xml:space="preserve" width="73.667" height="78"><rect id="backgroundrect" width="100%" height="100%" x="0" y="0" fill="none" stroke="none"/>

<g class="currentLayer"><title>Layer 1</title><g id="svg_1" class="selected" fill="#ffffff" fill-opacity="1">
	<g id="svg_2" fill="#ffffff" fill-opacity="1">
		<defs>
			<path id="SVGID_1_" d="M17.062,57.938c0-6.698,4.708-12.486,11.509-15.209c2.474,2.133,5.484,3.397,8.741,3.397     s6.267-1.264,8.741-3.397c6.801,2.724,11.509,8.512,11.509,15.209H17.062z M37.312,14.062c5.488,0,10.125,6.181,10.125,13.5     c0,7.317-4.637,13.5-10.125,13.5s-10.125-6.183-10.125-13.5C27.188,20.244,31.825,14.062,37.312,14.062z M49.444,38.698     c1.909-3.105,3.056-6.953,3.056-11.136C52.5,17.311,45.701,9,37.312,9s-15.188,8.311-15.188,18.562     c0,4.183,1.147,8.031,3.058,11.136C17.333,42.423,12,49.635,12,57.938v1.688C12,61.49,13.512,63,15.375,63H59.25     c1.865,0,3.375-1.51,3.375-3.375v-1.688C62.625,49.633,57.292,42.423,49.444,38.698z" fill="#ffffff" fill-opacity="1"/>
		</defs>
		<clipPath id="SVGID_2_">
			<use xlink:href="#SVGID_1_" style="overflow:visible;" id="svg_3"/>
		</clipPath>
		<rect x="7" y="4" style="clip-path:url(#SVGID_2_);" width="60.625" height="64" id="svg_4" fill="#ffffff" fill-opacity="1"/>
	</g>
</g></g></svg>