<?xml version="1.0" encoding="iso-8859-1"?>
<!-- Generator: Adobe Illustrator 21.1.0, SVG Export Plug-In . SVG Version: 6.00 Build 0)  -->
<svg version="1.1" id="Layer_1" xmlns="http://www.w3.org/2000/svg" xmlns:xlink="http://www.w3.org/1999/xlink" x="0px" y="0px"
	 viewBox="0 0 87.004 79" enable-background="new 0 0 87.004 79" xml:space="preserve">
<g>
	<defs>
		<rect id="SVGID_1_" x="-956.605" y="-327.461" width="2861.645" height="2472.632"/>
	</defs>
	<clipPath id="SVGID_2_">
		<use xlink:href="#SVGID_1_"  overflow="visible"/>
	</clipPath>
</g>
<g>
	<g>
		<path fill="none" stroke="#ffffff" stroke-width="3" stroke-linejoin="round" stroke-miterlimit="10" d="M56.117,50.356
			l-0.041,0.041l-11.14-11.14c1.178-3.008,0.556-6.558-1.875-8.988c-3.274-3.274-8.582-3.274-11.856,0
			c-3.274,3.274-3.274,8.582,0,11.856c2.43,2.43,5.98,3.052,8.988,1.875l2.49,2.49l-0.789,3.915l3.915-0.789l0.43,0.43l-0.789,3.915
			l3.915-0.789l1.966,1.966l-0.027,0.027l0.051-0.002l0.002,0.002l0.003-0.003l4.536-0.201L56.117,50.356z"/>
	</g>
</g>
<path stroke="#ffffff" fill="none"   d="M35.947,37.688c-0.685,0-1.37-0.261-1.893-0.781c-1.043-1.045-1.043-2.743-0.001-3.787c1.047-1.043,2.743-1.043,3.786,0
	c1.044,1.044,1.044,2.742,0,3.786C37.318,37.427,36.633,37.688,35.947,37.688z M35.947,34.336c-0.173,0-0.347,0.065-0.479,0.198
	c-0.264,0.263-0.264,0.693,0.001,0.957c0.262,0.264,0.692,0.264,0.956,0c0.264-0.265,0.264-0.694,0-0.958
	C36.294,34.401,36.121,34.336,35.947,34.336z"/>
</svg>
